<svg width="400" height="400" viewBox="0 0 400 400" fill="none" xmlns="http://www.w3.org/2000/svg">
<path d="M278.315 178.788L288.591 231.104V248.543L245.928 272.21L278.315 178.788Z" fill="#72BE73"/>
<path d="M200.923 275L217 276.573L216.154 313.137L195 321L200.923 275Z" fill="#7F9E6C"/>
<path d="M274.889 137.059L284.232 146.712L278.315 179.41L244.06 166.643L274.889 137.059Z" fill="#56945A"/>
<path d="M244.06 166.643L278.315 179.099L245.928 272.21L198.906 265.359L244.06 166.643Z" fill="#3C8143"/>
<path d="M198.906 265.359L245.305 271.899L273.644 291.829L242.191 301.171L198.283 284.044L198.906 265.359Z" fill="#48965B"/>
<path d="M200.463 90.0361L226.932 85.6764L244.994 166.02L198.594 268.473L200.463 90.0361Z" fill="#72BE73"/>
<path d="M226.31 85.3649L245.617 86.6106L254.648 81.0052L244.683 165.397L226.31 85.3649Z" fill="#6CA667"/>
<path d="M216 313L201.5 370L176 383.5L195.169 320.79L216 313Z" fill="#6CA667"/>
<path d="M181.5 317.5L195.169 320.79L176.5 383.5L163 364L181.5 317.5Z" fill="#56945A"/>
<path d="M187.5 278L201 275.5L195.169 320.79L181.5 317.5L187.5 278Z" fill="#71965B"/>
<path d="M200.586 29L226.932 85.6764L200.586 90.0361L175.55 85.6764L200.586 29Z" fill="#A7E083"/>
<path d="M334.954 130.752L317.864 184.081L278.315 179.099L284.232 146.712L334.954 130.752Z" fill="#48965B"/>
<path d="M288.591 248.543L319.421 274.079L273.644 291.829L245.305 272.21L288.591 248.543Z" fill="#7BA968"/>
<path d="M317.864 184.081L333.933 192.891L288.591 231.104L278.315 179.099L317.864 184.081Z" fill="#71965B"/>
<path d="M121.639 178.788L111.362 231.104V248.543L154.025 272.21L121.639 178.788Z" fill="#56945A"/>
<path d="M125.064 137.059L115.722 146.712L121.639 179.41L155.931 166.643L125.064 137.059Z" fill="#6DD687"/>
<path d="M156.243 166.331L121.639 179.099L154.025 272.21L201.048 265.359L156.243 166.331Z" fill="#3DA557"/>
<path d="M201.048 265.359L154.648 271.899L126.31 291.829L157.762 301.171L201.671 284.044L201.048 265.359Z" fill="#60C066"/>
<path d="M201.359 90.0361L175.238 85.0535L155.931 166.643L201.359 268.473V90.0361Z" fill="#499653"/>
<path d="M176.447 85.3491L155.931 89.7247L145.306 81.0052L155.931 166.643L176.447 85.3491Z" fill="#61B86D"/>
<path d="M65 130.752L82.0899 184.081L121.639 179.099L115.722 146.712L65 130.752Z" fill="#4D935E"/>
<path d="M111.362 248.543L80.5328 274.079L126.31 291.829L154.648 272.21L111.362 248.543Z" fill="#689B67"/>
<path d="M82.0899 184.081L66.0204 192.891L111.362 231.104L121.639 179.099L82.0899 184.081Z" fill="#6DD687"/>
</svg>
