<svg width="400" height="400" viewBox="0 0 400 400" fill="none" xmlns="http://www.w3.org/2000/svg">
<path d="M171 324.668L225 308.647L225 340.69L171 324.668Z" fill="#664D2B"/>
<path d="M171 356.668L225 372.69L225 340.647L171 356.668Z" fill="#B08B5B"/>
<path d="M225 340.668L171 356.69L171 324.647L225 340.668Z" fill="#836136"/>
<path d="M225 372.668L171 388.69L171 356.647L225 372.668Z" fill="#C2A47D"/>
<path d="M200.13 118.168L238.995 329.668H161.265L200.13 118.168Z" fill="#5BAF7B"/>
<path d="M200.322 117.913L312.542 309.16L238.837 329.668L200.322 117.913Z" fill="#48965B"/>
<path d="M200.353 117.913L88.1324 309.16L161.337 329.668L200.353 117.913Z" fill="#72BE73"/>
<path d="M204.534 58.2555L230.012 270.846L163.374 268.374L204.534 58.2555Z" fill="#4B8740"/>
<path d="M204.709 58.0065L293.824 252.692L229.67 270.834L204.709 58.0065Z" fill="#52774A"/>
<path d="M204.735 58.0075L101.438 245.554L163.716 268.387L204.735 58.0075Z" fill="#7BA968"/>
<path d="M194.18 10.3113L228.689 205.676L166.913 206.818L194.18 10.3113Z" fill="#3C8143"/>
<path d="M194.173 10.1925L286.79 185.598L228.789 205.586L194.173 10.1925Z" fill="#3D752F"/>
<path d="M194.353 10.0715L108.439 188.893L166.8 206.732L194.353 10.0715Z" fill="#6B9970"/>
</svg>
